<svg xmlns="http://www.w3.org/2000/svg" width="727.5562133789062" height="307.26080322265625" viewBox="-426.21392822265625 -222.02647399902344 727.5562133789062 307.26080322265625"><title>Neo4j Graph Visualization</title><desc>Created using Neo4j (http://www.neo4j.com/)</desc><g class="layer relationships"><g class="relationship" transform="translate(-62.46664627843754 56.23435092705705) rotate(349.8345120008539)"><path class="b-outline" fill="#F16667" stroke="none" d="M 24.018736134675446,6.953439040707552 L 24.277555179777966,5.987513214418485 A 244.2778416175649 244.2778416175649 0 0 0 63.2974831695923,13.109024836694715 L 63.198399971717805,14.104103989274535 A 245.2778416175649 245.2778416175649 0 0 1 24.018736134675446,6.953439040707552 Z M 106.99394795560463,14.535296024701239 L 106.91447630443501,13.538458898255612 A 244.2778416175649 244.2778416175649 0 0 0 146.06705727661486,7.186600010228481 L 145.34780565720646,4.274096429461858 L 152.9827742349717,5.993763495069987 L 147.02605943582606,11.06993811791731 L 146.30680781641766,8.157434537150689 A 245.2778416175649 245.2778416175649 0 0 1 106.99394795560463,14.535296024701239"/><text text-anchor="middle" pointer-events="none" font-size="8px" fill="#000000" x="85.0914528575334" y="17.799215890793477" font-family="Helvetica Neue, Helvetica, Arial, sans-serif">DIRECTED</text></g><g class="relationship" transform="translate(-62.46664627843754 56.23435092705705) rotate(349.8345120008539)"><path class="b-outline" fill="#A5ABB6" stroke="none" d="M 24.018736134675446,-6.953439040707552 L 24.277555179777966,-5.987513214418485 A 244.2778416175649 244.2778416175649 0 0 1 68.49127071502903,-13.570261499824795 L 68.41344932097203,-14.567228816554405 A 245.2778416175649 245.2778416175649 0 0 0 24.018736134675446,-6.953439040707552 Z M 101.77079098227566,-14.895650784299932 L 101.71261418978095,-13.897344488208887 A 244.2778416175649 244.2778416175649 0 0 1 146.06705727661486,-7.186600010228481 L 145.34780565720646,-4.274096429461858 L 152.9827742349717,-5.993763495069987 L 147.02605943582606,-11.06993811791731 L 146.30680781641766,-8.157434537150689 A 245.2778416175649 245.2778416175649 0 0 0 101.77079098227566,-14.895650784299932"/><text text-anchor="middle" pointer-events="none" font-size="8px" fill="#000000" x="85.09145285753338" y="-11.799215890793477" font-family="Helvetica Neue, Helvetica, Arial, sans-serif">WROTE</text></g><g class="relationship" transform="translate(272.34229888157563 -31.865361962391034) rotate(520.4881616262152)"><path class="b-outline" fill="#F16667" stroke="none" d="M 24.018736134675446,6.953439040707552 L 24.277555179777966,5.987513214418485 A 230.28814934946226 230.28814934946226 0 0 0 59.730223066396704,12.564571610449946 L 59.625353184491544,13.55905756201949 A 231.28814934946226 231.28814934946226 0 0 1 24.018736134675446,6.953439040707552 Z M 103.41884641133721,14.007652487548938 L 103.33437026167948,13.01122698599903 A 230.28814934946226 230.28814934946226 0 0 0 138.91432794615383,7.161785252405808 L 138.1973937833393,4.2487103467108955 L 145.83099175324438,5.974451356787725 L 139.87024016323988,11.045885126665693 L 139.15330600042535,8.13281022097078 A 231.28814934946226 231.28814934946226 0 0 1 103.41884641133721,14.007652487548938"/><text text-anchor="middle" pointer-events="none" font-size="8px" fill="#000000" x="81.51657931908913" y="17.322284554040806" transform="rotate(180 81.51657931908913 14.322284554040806)" font-family="Helvetica Neue, Helvetica, Arial, sans-serif">DIRECTED</text></g><g class="relationship" transform="translate(272.34229888157563 -31.865361962391034) rotate(520.4881616262152)"><path class="b-outline" fill="#A5ABB6" stroke="none" d="M 24.018736134675446,-6.953439040707552 L 24.277555179777966,-5.987513214418485 A 230.28814934946226 230.28814934946226 0 0 1 64.92090017115939,-13.052592444658387 L 64.83857021203978,-14.049197570990458 A 231.28814934946226 231.28814934946226 0 0 0 24.018736134675446,-6.953439040707552 Z M 98.19668292766636,-14.390898563235055 L 98.13478538179079,-13.39281605471453 A 230.28814934946226 230.28814934946226 0 0 1 138.91432794615383,-7.161785252405808 L 138.1973937833393,-4.2487103467108955 L 145.83099175324438,-5.974451356787725 L 139.87024016323988,-11.045885126665693 L 139.15330600042535,-8.13281022097078 A 231.28814934946226 231.28814934946226 0 0 0 98.19668292766636,-14.390898563235055"/><text text-anchor="middle" pointer-events="none" font-size="8px" fill="#000000" x="81.51657931908908" y="-11.322284554040806" transform="rotate(180 81.51657931908908 -14.322284554040806)" font-family="Helvetica Neue, Helvetica, Arial, sans-serif">WROTE</text></g><g class="relationship" transform="translate(221.08586227699539 -128.2489065249445) rotate(180.63160904994675)"><path class="b-outline" fill="#A5ABB6" stroke="none" d="M 21.40063509461097,12.933012701892217 L 21.90063509461097,12.06698729810778 A 522.935116273739 522.935116273739 0 0 0 255.67157585660146,81.39303456442258 L 255.61861208248692,82.39163099874008 A 523.935116273739 523.935116273739 0 0 1 21.40063509461097,12.933012701892217 Z M 304.7299170402736,82.69135035526472 L 304.6891453432728,81.69218186660851 A 522.935116273739 522.935116273739 0 0 0 539.2888158422809,15.22453427716748 L 537.8206377759403,12.608343694370381 L 545.6379568798643,12.234817219505475 L 541.2463865974017,18.712788387563613 L 539.7782085310612,16.096597804766514 A 523.935116273739 523.935116273739 0 0 1 304.7299170402736,82.69135035526472"/><text text-anchor="middle" pointer-events="none" font-size="8px" fill="#000000" x="280.17380214592583" y="85.61726097980636" transform="rotate(180 280.17380214592583 82.61726097980636)" font-family="Helvetica Neue, Helvetica, Arial, sans-serif">PRODUCED</text></g><g class="relationship" transform="translate(221.08586227699539 -128.2489065249445) rotate(180.63160904994675)"><path class="b-outline" fill="#F16667" stroke="none" d="M 25 0.5 L 258.3364393287433 0.5 L 258.3364393287433 -0.5 L 25 -0.5 Z M 302.10310574109684 0.5 L 535.4395450698402 0.5 L 535.4395450698402 3.5 L 542.4395450698402 0 L 535.4395450698402 -3.5 L 535.4395450698402 -0.5 L 302.10310574109684 -0.5 Z"/><text text-anchor="middle" pointer-events="none" font-size="8px" fill="#000000" x="280.2197725349201" y="3" transform="rotate(180 280.2197725349201 0)" font-family="Helvetica Neue, Helvetica, Arial, sans-serif">DIRECTED</text></g><g class="relationship" transform="translate(221.08586227699539 -128.2489065249445) rotate(180.63160904994675)"><path class="b-outline" fill="#A5ABB6" stroke="none" d="M 21.40063509461097,-12.933012701892217 L 21.90063509461097,-12.06698729810778 A 522.935116273739 522.935116273739 0 0 1 263.5391673085905,-81.75092755541095 L 263.50124859686923,-82.75020838245678 A 523.935116273739 523.935116273739 0 0 0 21.40063509461097,-12.933012701892217 Z M 296.84349114856536,-82.95369137870932 L 296.81777174648954,-81.95402217724472 A 522.935116273739 522.935116273739 0 0 1 539.2888158422809,-15.22453427716748 L 537.8206377759403,-12.608343694370381 L 545.6379568798643,-12.234817219505475 L 541.2463865974017,-18.712788387563613 L 539.7782085310612,-16.096597804766514 A 523.935116273739 523.935116273739 0 0 0 296.84349114856536,-82.95369137870932"/><text text-anchor="middle" pointer-events="none" font-size="8px" fill="#000000" x="280.1738021459258" y="-79.61726097980636" transform="rotate(180 280.1738021459258 -82.61726097980636)" font-family="Helvetica Neue, Helvetica, Arial, sans-serif">WROTE</text></g><g class="relationship" transform="translate(-397.21391580818454 -11.243988615471281) rotate(375.1503259517339)"><path class="b-outline" fill="#A5ABB6" stroke="none" d="M 21.40063509461097,12.933012701892217 L 21.90063509461097,12.06698729810778 A 192.44368630667438 192.44368630667438 0 0 0 98.77957881470913,36.87498805771696 L 98.67906681660483,37.86992390400911 A 193.44368630667438 193.44368630667438 0 0 1 21.40063509461097,12.933012701892217 Z M 132.03715665608487,38.34845216986608 L 131.96522523938268,37.351042589357036 A 192.44368630667438 192.44368630667438 0 0 0 209.52413918951288,14.758482838787081 L 208.09928089414782,12.118448968146517 L 215.92169460356837,11.873819128042065 L 211.4239502499996,18.27852799964117 L 209.99909195463454,15.638494129000605 A 193.44368630667438 193.44368630667438 0 0 1 132.03715665608487,38.34845216986608"/><text text-anchor="middle" pointer-events="none" font-size="8px" fill="#000000" x="115.35494840486594" y="41.32970311032986" font-family="Helvetica Neue, Helvetica, Arial, sans-serif">WROTE</text></g><g class="relationship" transform="translate(-397.21391580818454 -11.243988615471281) rotate(375.1503259517339)"><path class="b-outline" fill="#F16667" stroke="none" d="M 25 0.5 L 93.57765522327645 0.5 L 93.57765522327645 -0.5 L 25 -0.5 Z M 137.34432163562997 0.5 L 205.92197685890642 0.5 L 205.92197685890642 3.5 L 212.92197685890642 0 L 205.92197685890642 -3.5 L 205.92197685890642 -0.5 L 137.34432163562997 -0.5 Z"/><text text-anchor="middle" pointer-events="none" font-size="8px" fill="#000000" x="115.46098842945321" y="3" font-family="Helvetica Neue, Helvetica, Arial, sans-serif">DIRECTED</text></g><g class="relationship" transform="translate(-397.21391580818454 -11.243988615471281) rotate(375.1503259517339)"><path class="b-outline" fill="#A5ABB6" stroke="none" d="M 21.40063509461097,-12.933012701892217 L 21.90063509461097,-12.06698729810778 A 192.44368630667438 192.44368630667438 0 0 1 90.9748142672553,-35.92509547599644 L 90.83374617350951,-36.91509537141408 A 193.44368630667438 193.44368630667438 0 0 0 21.40063509461097,-12.933012701892217 Z M 139.90663783599888,-37.61905551603979 L 139.79402542665142,-36.62541652462443 A 192.44368630667438 192.44368630667438 0 0 1 209.52413918951288,-14.758482838787081 L 208.09928089414782,-12.118448968146517 L 215.92169460356837,-11.873819128042065 L 211.4239502499996,-18.27852799964117 L 209.99909195463454,-15.638494129000605 A 193.44368630667438 193.44368630667438 0 0 0 139.90663783599888,-37.61905551603979"/><text text-anchor="middle" pointer-events="none" font-size="8px" fill="#000000" x="115.3549484048659" y="-35.32970311032986" font-family="Helvetica Neue, Helvetica, Arial, sans-serif">PRODUCED</text></g></g><g class="layer nodes"><g class="node" aria-label="graph-node5" transform="translate(-62.46664627843754,56.23435092705705)"><circle class="b-outline" cx="0" cy="0" r="25" fill="#F79767" stroke="#f36924" stroke-width="2px"/><text class="caption" text-anchor="middle" pointer-events="none" x="0" y="0" font-size="10px" fill="#FFFFFF" font-family="Helvetica Neue, Helvetica, Arial, sans-serif"> Lilly</text><text class="caption" text-anchor="middle" pointer-events="none" x="0" y="10" font-size="10px" fill="#FFFFFF" font-family="Helvetica Neue, Helvetica, Arial, sans-serif"> Wacho…</text></g><g class="node" aria-label="graph-node121" transform="translate(112.00448055754987,24.950523236746037)"><circle class="b-outline" cx="0" cy="0" r="25" fill="#C990C0" stroke="#b261a5" stroke-width="2px"/><text class="caption" text-anchor="middle" pointer-events="none" x="0" y="0" font-size="10px" fill="#FFFFFF" font-family="Helvetica Neue, Helvetica, Arial, sans-serif"> Speed</text><text class="caption" text-anchor="middle" pointer-events="none" x="0" y="10" font-size="10px" fill="#FFFFFF" font-family="Helvetica Neue, Helvetica, Arial, sans-serif"> Racer</text></g><g class="node" aria-label="graph-node6" transform="translate(272.34229888157563,-31.865361962391034)"><circle class="b-outline" cx="0" cy="0" r="25" fill="#F79767" stroke="#f36924" stroke-width="2px"/><text class="caption" text-anchor="middle" pointer-events="none" x="0" y="0" font-size="10px" fill="#FFFFFF" font-family="Helvetica Neue, Helvetica, Arial, sans-serif"> Lana</text><text class="caption" text-anchor="middle" pointer-events="none" x="0" y="10" font-size="10px" fill="#FFFFFF" font-family="Helvetica Neue, Helvetica, Arial, sans-serif"> Wacho…</text></g><g class="node" aria-label="graph-node45" transform="translate(221.08586227699539,-128.2489065249445)"><circle class="b-outline" cx="0" cy="0" r="25" fill="#F79767" stroke="#f36924" stroke-width="2px"/><text class="caption" text-anchor="middle" pointer-events="none" x="0" y="0" font-size="10px" fill="#FFFFFF" font-family="Helvetica Neue, Helvetica, Arial, sans-serif"> Cameron</text><text class="caption" text-anchor="middle" pointer-events="none" x="0" y="10" font-size="10px" fill="#FFFFFF" font-family="Helvetica Neue, Helvetica, Arial, sans-serif"> Crowe</text></g><g class="node" aria-label="graph-node37" transform="translate(-346.31920522446944,-134.5040390355539)"><circle class="b-outline" cx="0" cy="0" r="25" fill="#C990C0" stroke="#b261a5" stroke-width="2px"/><text class="caption" text-anchor="middle" pointer-events="none" x="0" y="0" font-size="10px" fill="#FFFFFF" font-family="Helvetica Neue, Helvetica, Arial, sans-serif"> Jerry</text><text class="caption" text-anchor="middle" pointer-events="none" x="0" y="10" font-size="10px" fill="#FFFFFF" font-family="Helvetica Neue, Helvetica, Arial, sans-serif"> Magui…</text></g><g class="node" aria-label="graph-node156" transform="translate(-397.21391580818454,-11.243988615471281)"><circle class="b-outline" cx="0" cy="0" r="25" fill="#F79767" stroke="#f36924" stroke-width="2px"/><text class="caption" text-anchor="middle" pointer-events="none" x="0" y="0" font-size="10px" fill="#FFFFFF" font-family="Helvetica Neue, Helvetica, Arial, sans-serif"> Nancy</text><text class="caption" text-anchor="middle" pointer-events="none" x="0" y="10" font-size="10px" fill="#FFFFFF" font-family="Helvetica Neue, Helvetica, Arial, sans-serif"> Meyers</text></g><g class="node" aria-label="graph-node154" transform="translate(-167.56128760116223,50.93749922502016)"><circle class="b-outline" cx="0" cy="0" r="25" fill="#C990C0" stroke="#b261a5" stroke-width="2px"/><text class="caption" text-anchor="middle" pointer-events="none" x="0" y="5" font-size="10px" fill="#FFFFFF" font-family="Helvetica Neue, Helvetica, Arial, sans-serif"> Somethi…</text></g></g></svg>