<svg xmlns="http://www.w3.org/2000/svg" width="533.0016479492188" height="389.8826904296875" viewBox="-249.34393310546875 -203.06398010253906 533.0016479492188 389.8826904296875"><title>Neo4j Graph Visualization</title><desc>Created using Neo4j (http://www.neo4j.com/)</desc><g class="layer relationships"><g class="relationship" transform="translate(-43.315723789617536 -47.30384947425278) rotate(367.1999081306915)"><path class="b-outline" fill="#A5ABB6" stroke="none" d="M 24.018736134675446,-6.953439040707552 L 24.277555179777966,-5.987513214418485 A 180.208591685974 180.208591685974 0 0 1 57.11622893415366,-11.598596864591428 L 57.03963579430432,-12.59565929539906 A 181.208591685974 181.208591685974 0 0 0 24.018736134675446,-6.953439040707552 Z M 80.46963425450232,-12.876111480173591 L 80.41692889783887,-11.877501373385684 A 180.208591685974 180.208591685974 0 0 1 113.38050177351474,-7.054056862917331 L 112.67362874525821,-4.13852423200348 L 120.30122341702314,-5.890608568804405 L 114.32299914452344,-10.941433704135799 L 113.61612611626691,-8.025901073221947 A 181.208591685974 181.208591685974 0 0 0 80.46963425450232,-12.876111480173591"/><text text-anchor="middle" pointer-events="none" font-size="8px" fill="#000000" x="68.75608166363355" y="-9.615027869902121" font-family="Helvetica Neue, Helvetica, Arial, sans-serif">road</text></g><g class="relationship" transform="translate(100.14144081768457 -29.181228729038256) rotate(359.9689279629973)"><path class="b-outline" fill="#A5ABB6" stroke="none" d="M 21.40063509461097,-12.933012701892217 L 21.90063509461097,-12.06698729810778 A 108.13280481959475 108.13280481959475 0 0 1 49.01283438204744,-23.140734836644043 L 48.76356494741721,-24.10916901043136 A 109.13280481959475 109.13280481959475 0 0 0 21.40063509461097,-12.933012701892217 Z M 98.53967344358838,-25.19409865632366 L 98.33283704845958,-24.215723112041132 A 108.13280481959475 108.13280481959475 0 0 1 125.90178980922472,-14.333816493194293 L 124.51641691369706,-11.672850138589766 L 132.3416067858899,-11.544774129397176 L 127.74895366992827,-17.881771632666997 L 126.3635807744006,-15.22080527806247 A 109.13280481959475 109.13280481959475 0 0 0 98.53967344358838,-25.19409865632366"/><text text-anchor="middle" pointer-events="none" font-size="8px" fill="#000000" x="73.59981820715687" y="-24.02824104093054" font-family="Helvetica Neue, Helvetica, Arial, sans-serif">twowheeler</text></g><g class="relationship" transform="translate(254.65774450369747 -29.2650243736237) rotate(218.56744662761997)"><path class="b-outline" fill="#A5ABB6" stroke="none" d="M 21.40063509461097,12.933012701892217 L 21.90063509461097,12.06698729810778 A 97.73675796727107 97.73675796727107 0 0 0 43.96941055633484,21.415190221672972 L 43.695208668741174,22.37686237206522 A 98.73675796727107 98.73675796727107 0 0 1 21.40063509461097,12.933012701892217 Z M 93.39554283285436,23.53372011521651 L 93.16638269816463,22.56033137855013 A 97.73675796727107 97.73675796727107 0 0 0 115.64621146661838,14.2490711358951 L 114.26871956935084,11.58401652614275 L 122.09425420558513,11.47909914389621 L 117.48286732964179,17.802477282231568 L 116.10537543237425,15.137422672479218 A 98.73675796727107 98.73675796727107 0 0 1 93.39554283285436,23.53372011521651"/><text text-anchor="middle" pointer-events="none" font-size="8px" fill="#000000" x="68.48300973481122" y="28.634628312840476" transform="rotate(180 68.48300973481122 25.634628312840476)" font-family="Helvetica Neue, Helvetica, Arial, sans-serif">twowheeler</text></g><g class="relationship" transform="translate(141.83083019946616 -119.2286587934793) rotate(471.930038355583)"><path class="b-outline" fill="#A5ABB6" stroke="none" d="M 25 0.5 L 88.14570304176317 0.5 L 88.14570304176317 -0.5 L 25 -0.5 Z M 108.96236964485155 0.5 L 172.10807268661472 0.5 L 172.10807268661472 3.5 L 179.10807268661472 0 L 172.10807268661472 -3.5 L 172.10807268661472 -0.5 L 108.96236964485155 -0.5 Z"/><text text-anchor="middle" pointer-events="none" font-size="8px" fill="#000000" x="98.55403634330736" y="3" transform="rotate(180 98.55403634330736 0)" font-family="Helvetica Neue, Helvetica, Arial, sans-serif">trek</text></g><g class="relationship" transform="translate(254.65774450369747 -29.2650243736237) rotate(218.56744662761997)"><path class="b-outline" fill="#A5ABB6" stroke="none" d="M 25 0.5 L 56.959854707005604 0.5 L 56.959854707005604 -0.5 L 25 -0.5 Z M 80.34318791318236 0.5 L 112.30304262018797 0.5 L 112.30304262018797 3.5 L 119.30304262018797 0 L 112.30304262018797 -3.5 L 112.30304262018797 -0.5 L 80.34318791318236 -0.5 Z"/><text text-anchor="middle" pointer-events="none" font-size="8px" fill="#000000" x="68.65152131009398" y="3" transform="rotate(180 68.65152131009398 0)" font-family="Helvetica Neue, Helvetica, Arial, sans-serif">road</text></g><g class="relationship" transform="translate(254.65774450369747 -29.2650243736237) rotate(218.56744662761997)"><path class="b-outline" fill="#A5ABB6" stroke="none" d="M 21.40063509461097,-12.933012701892217 L 21.90063509461097,-12.06698729810778 A 97.73675796727107 97.73675796727107 0 0 1 58.17420357405237,-24.34631994569537 L 58.04533895068916,-25.337982140621378 A 98.73675796727107 98.73675796727107 0 0 0 21.40063509461097,-12.933012701892217 Z M 78.92317870925513,-25.823948502642494 L 78.84059381585898,-24.82736446936545 A 97.73675796727107 97.73675796727107 0 0 1 115.64621146661838,-14.2490711358951 L 114.26871956935084,-11.58401652614275 L 122.09425420558513,-11.47909914389621 L 117.48286732964179,-17.802477282231568 L 116.10537543237425,-15.137422672479218 A 98.73675796727107 98.73675796727107 0 0 0 78.92317870925513,-25.823948502642494"/><text text-anchor="middle" pointer-events="none" font-size="8px" fill="#000000" x="68.48300973481122" y="-22.634628312840476" transform="rotate(180 68.48300973481122 -25.634628312840476)" font-family="Helvetica Neue, Helvetica, Arial, sans-serif">trek</text></g><g class="relationship" transform="translate(100.14144081768457 -29.181228729038256) rotate(359.9689279629973)"><path class="b-outline" fill="#A5ABB6" stroke="none" d="M 25 0.5 L 62.066496600708774 0.5 L 62.066496600708774 -0.5 L 25 -0.5 Z M 85.44982980688553 0.5 L 122.5163264075943 0.5 L 122.5163264075943 3.5 L 129.5163264075943 0 L 122.5163264075943 -3.5 L 122.5163264075943 -0.5 L 85.44982980688553 -0.5 Z"/><text text-anchor="middle" pointer-events="none" font-size="8px" fill="#000000" x="73.75816320379715" y="3" font-family="Helvetica Neue, Helvetica, Arial, sans-serif">road</text></g><g class="relationship" transform="translate(100.14144081768457 -29.181228729038256) rotate(359.9689279629973)"><path class="b-outline" fill="#A5ABB6" stroke="none" d="M 21.40063509461097,12.933012701892217 L 21.90063509461097,12.06698729810778 A 108.13280481959475 108.13280481959475 0 0 0 63.279394086697835,25.80711115229262 L 63.16206018937705,26.800203673933737 A 109.13280481959475 109.13280481959475 0 0 1 21.40063509461097,12.933012701892217 Z M 84.03759949148903,27.255210948449644 L 83.96364774068027,26.257949127987075 A 108.13280481959475 108.13280481959475 0 0 0 125.90178980922472,14.333816493194293 L 124.51641691369706,11.672850138589766 L 132.3416067858899,11.544774129397176 L 127.74895366992827,17.881771632666997 L 126.3635807744006,15.22080527806247 A 109.13280481959475 109.13280481959475 0 0 1 84.03759949148903,27.255210948449644"/><text text-anchor="middle" pointer-events="none" font-size="8px" fill="#000000" x="73.59981820715689" y="30.02824104093054" font-family="Helvetica Neue, Helvetica, Arial, sans-serif">trek</text></g><g class="relationship" transform="translate(-43.315723789617536 -47.30384947425278) rotate(367.1999081306915)"><path class="b-outline" fill="#A5ABB6" stroke="none" d="M 24.018736134675446,6.953439040707552 L 24.277555179777966,5.987513214418485 A 180.208591685974 180.208591685974 0 0 0 58.39258928458365,11.692087668011766 L 58.323078827854395,12.689668890973252 A 181.208591685974 181.208591685974 0 0 1 24.018736134675446,6.953439040707552 Z M 79.18430871315067,12.939373452770525 L 79.13869642823063,11.940414234651797 A 180.208591685974 180.208591685974 0 0 0 113.38050177351474,7.054056862917331 L 112.67362874525821,4.13852423200348 L 120.30122341702314,5.890608568804405 L 114.32299914452344,10.941433704135799 L 113.61612611626691,8.025901073221947 A 181.208591685974 181.208591685974 0 0 1 79.18430871315067,12.939373452770525"/><text text-anchor="middle" pointer-events="none" font-size="8px" fill="#000000" x="68.75608166363365" y="15.615027869902121" font-family="Helvetica Neue, Helvetica, Arial, sans-serif">trek</text></g><g class="relationship" transform="translate(-43.315723789617536 -47.30384947425278) rotate(287.37693651532925)"><path class="b-outline" fill="#A5ABB6" stroke="none" d="M 21.40063509461097,12.933012701892217 L 21.90063509461097,12.06698729810778 A 86.01674983571199 86.01674983571199 0 0 0 52.437704775535764,22.68215657913092 L 52.29271783682033,23.67159014820058 A 87.01674983571199 87.01674983571199 0 0 1 21.40063509461097,12.933012701892217 Z M 73.17259219845995,24.197780680478857 L 73.07762677856556,23.20230010858191 A 86.01674983571199 86.01674983571199 0 0 0 104.11061690555694,14.13874852322138 L 102.74338528027594,11.468415644565338 L 110.56926555996787,11.393596877341713 L 105.9335924059316,17.699192361429436 L 104.56636078065061,15.028859482773395 A 87.01674983571199 87.01674983571199 0 0 1 73.17259219845995,24.197780680478857"/><text text-anchor="middle" pointer-events="none" font-size="8px" fill="#000000" x="62.729406586976985" y="27.06358705729697" font-family="Helvetica Neue, Helvetica, Arial, sans-serif">trek</text></g><g class="relationship" transform="translate(-3.6475378663704294 -174.06397418014467) rotate(510.9848756575545)"><path class="b-outline" fill="#A5ABB6" stroke="none" d="M 24.018736134675446,-6.953439040707552 L 24.277555179777966,-5.987513214418485 A 250.66488602722768 250.66488602722768 0 0 1 61.833722286877126,-13.035384561703921 L 61.724729440817974,-14.029427095757626 A 251.66488602722768 251.66488602722768 0 0 0 24.018736134675446,-6.953439040707552 Z M 111.73923989076582,-14.513262400733481 L 111.64949817659499,-13.517297328686425 A 250.66488602722768 250.66488602722768 0 0 1 149.33498463126605,-7.197306111995828 L 148.61473317567146,-4.28504962591603 L 156.25029167471803,-6.0020954632883825 L 150.2953199053922,-11.080314760102226 L 149.5750684497976,-8.168058274022428 A 251.66488602722768 251.66488602722768 0 0 0 111.73923989076582,-14.513262400733481"/><text text-anchor="middle" pointer-events="none" font-size="8px" fill="#000000" x="86.7247716559142" y="-12.01696036205766" transform="rotate(180 86.7247716559142 -15.01696036205766)" font-family="Helvetica Neue, Helvetica, Arial, sans-serif">twowheeler</text></g><g class="relationship" transform="translate(-161.50998907313598 -86.50490600042058) rotate(422.32746245000726)"><path class="b-outline" fill="#A5ABB6" stroke="none" d="M 24.018736134675446,-6.953439040707552 L 24.277555179777966,-5.987513214418485 A 205.27436059203086 205.27436059203086 0 0 1 50.280704419757186,-11.181921433706151 L 50.14856047019501,-12.17315197025863 A 206.27436059203086 206.27436059203086 0 0 0 24.018736134675446,-6.953439040707552 Z M 100.14379519087068,-12.725086212213427 L 100.03356662948585,-11.731179946887067 A 205.27436059203086 205.27436059203086 0 0 1 126.14505415789006,-7.11210361073209 L 125.43275986777387,-4.197890707688137 L 133.063599980012,-5.935785750968295 L 127.09477987804497,-10.997720814790695 L 126.38248558792878,-8.083507911746741 A 206.27436059203086 206.27436059203086 0 0 0 100.14379519087068,-12.725086212213427"/><text text-anchor="middle" pointer-events="none" font-size="8px" fill="#000000" x="75.13491277213998" y="-10.469529125044374" font-family="Helvetica Neue, Helvetica, Arial, sans-serif">twowheeler</text></g><g class="relationship" transform="translate(-88.43447774033315 52.8456784872754) rotate(366.3951010414181)"><path class="b-outline" fill="#A5ABB6" stroke="none" d="M 24.018736134675446,6.953439040707552 L 24.277555179777966,5.987513214418485 A 200.66418188889907 200.66418188889907 0 0 0 49.11114686623293,10.986321458620296 L 48.97608479386311,11.977158597915718 A 201.66418188889907 201.66418188889907 0 0 1 24.018736134675446,6.953439040707552 Z M 98.96830008325477,12.537070393259313 L 98.85546381878989,11.543456797628892 A 200.66418188889907 200.66418188889907 0 0 0 123.79478511520384,7.102104167394132 L 123.08342470880595,4.187663162293938 L 130.7137075281706,5.928003386649088 L 124.7432656570677,10.988025507527723 L 124.03190525066981,8.07358450242753 A 201.66418188889907 201.66418188889907 0 0 1 98.96830008325477,12.537070393259313"/><text text-anchor="middle" pointer-events="none" font-size="8px" fill="#000000" x="73.9603736698" y="16.3123636208353" font-family="Helvetica Neue, Helvetica, Arial, sans-serif">twowheeler</text></g><g class="relationship" transform="translate(-88.43447774033315 52.8456784872754) rotate(366.3951010414181)"><path class="b-outline" fill="#A5ABB6" stroke="none" d="M 24.018736134675446,-6.953439040707552 L 24.277555179777966,-5.987513214418485 A 200.66418188889907 200.66418188889907 0 0 1 63.591800329870225,-12.427650663116111 L 63.52890187597645,-13.425670595030198 A 201.66418188889907 201.66418188889907 0 0 0 24.018736134675446,-6.953439040707552 Z M 84.3866910004331,-13.65927740937056 L 84.34616112645482,-12.66009908228611 A 200.66418188889907 200.66418188889907 0 0 1 123.79478511520384,-7.102104167394132 L 123.08342470880595,-4.187663162293938 L 130.7137075281706,-5.928003386649088 L 124.7432656570677,-10.988025507527723 L 124.03190525066981,-8.07358450242753 A 201.66418188889907 201.66418188889907 0 0 0 84.3866910004331,-13.65927740937056"/><text text-anchor="middle" pointer-events="none" font-size="8px" fill="#000000" x="73.96037366979996" y="-10.3123636208353" font-family="Helvetica Neue, Helvetica, Arial, sans-serif">trek</text></g><g class="relationship" transform="translate(-161.50998907313598 -86.50490600042058) rotate(422.32746245000726)"><path class="b-outline" fill="#A5ABB6" stroke="none" d="M 24.018736134675446,6.953439040707552 L 24.277555179777966,5.987513214418485 A 205.27436059203086 205.27436059203086 0 0 0 64.76534709461112,12.592467499647881 L 64.70376550185317,13.590569552262451 A 206.27436059203086 206.27436059203086 0 0 1 24.018736134675446,6.953439040707552 Z M 85.56084556029734,13.820826230439167 L 85.52131385909775,12.821607913653366 A 205.27436059203086 205.27436059203086 0 0 0 126.14505415789006,7.11210361073209 L 125.43275986777387,4.197890707688137 L 133.063599980012,5.935785750968295 L 127.09477987804497,10.997720814790695 L 126.38248558792878,8.083507911746741 A 206.27436059203086 206.27436059203086 0 0 1 85.56084556029734,13.820826230439167"/><text text-anchor="middle" pointer-events="none" font-size="8px" fill="#000000" x="75.13491277213998" y="16.469529125044374" font-family="Helvetica Neue, Helvetica, Arial, sans-serif">trek</text></g><g class="relationship" transform="translate(-3.6475378663704294 -174.06397418014467) rotate(510.9848756575545)"><path class="b-outline" fill="#A5ABB6" stroke="none" d="M 24.018736134675446,6.953439040707552 L 24.277555179777966,5.987513214418485 A 250.66488602722768 250.66488602722768 0 0 0 76.34753566779634,14.201336772890926 L 76.29644408429913,15.20003074508449 A 251.66488602722768 251.66488602722768 0 0 1 24.018736134675446,6.953439040707552 Z M 97.14760587717396,15.40174277094249 L 97.1158445759401,14.402247288339424 A 250.66488602722768 250.66488602722768 0 0 0 149.33498463126605,7.197306111995828 L 148.61473317567146,4.28504962591603 L 156.25029167471803,6.0020954632883825 L 150.2953199053922,11.080314760102226 L 149.5750684497976,8.168058274022428 A 251.66488602722768 251.66488602722768 0 0 1 97.14760587717396,15.40174277094249"/><text text-anchor="middle" pointer-events="none" font-size="8px" fill="#000000" x="86.72477165591425" y="18.01696036205766" transform="rotate(180 86.72477165591425 15.01696036205766)" font-family="Helvetica Neue, Helvetica, Arial, sans-serif">trek</text></g><g class="relationship" transform="translate(-3.6475378663704294 -174.06397418014467) rotate(380.6529843946674)"><path class="b-outline" fill="#A5ABB6" stroke="none" d="M 25 0.5 L 63.826580650704585 0.5 L 63.826580650704585 -0.5 L 25 -0.5 Z M 84.64324725379296 0.5 L 123.46982790449755 0.5 L 123.46982790449755 3.5 L 130.46982790449755 0 L 123.46982790449755 -3.5 L 123.46982790449755 -0.5 L 84.64324725379296 -0.5 Z"/><text text-anchor="middle" pointer-events="none" font-size="8px" fill="#000000" x="74.23491395224877" y="3" font-family="Helvetica Neue, Helvetica, Arial, sans-serif">trek</text></g><g class="relationship" transform="translate(-43.315723789617536 -47.30384947425278) rotate(287.37693651532925)"><path class="b-outline" fill="#A5ABB6" stroke="none" d="M 25 0.5 L 51.21935317129575 0.5 L 51.21935317129575 -0.5 L 25 -0.5 Z M 74.60268637747251 0.5 L 100.82203954876826 0.5 L 100.82203954876826 3.5 L 107.82203954876826 0 L 100.82203954876826 -3.5 L 100.82203954876826 -0.5 L 74.60268637747251 -0.5 Z"/><text text-anchor="middle" pointer-events="none" font-size="8px" fill="#000000" x="62.91101977438413" y="3" font-family="Helvetica Neue, Helvetica, Arial, sans-serif">road</text></g><g class="relationship" transform="translate(-43.315723789617536 -47.30384947425278) rotate(287.37693651532925)"><path class="b-outline" fill="#A5ABB6" stroke="none" d="M 21.40063509461097,-12.933012701892217 L 21.90063509461097,-12.06698729810778 A 86.01674983571199 86.01674983571199 0 0 1 31.31503944825075,-16.75968934403508 L 30.924487949520802,-17.68027042511366 A 87.01674983571199 87.01674983571199 0 0 0 21.40063509461097,-12.933012701892217 Z M 94.81547913950735,-19.290377558890754 L 94.47179278965513,-18.351293061667405 A 86.01674983571199 86.01674983571199 0 0 1 104.11061690555694,-14.13874852322138 L 102.74338528027594,-11.468415644565338 L 110.56926555996787,-11.393596877341713 L 105.9335924059316,-17.699192361429436 L 104.56636078065061,-15.028859482773395 A 87.01674983571199 87.01674983571199 0 0 0 94.81547913950735,-19.290377558890754"/><text text-anchor="middle" pointer-events="none" font-size="8px" fill="#000000" x="62.729406586977" y="-21.06358705729697" font-family="Helvetica Neue, Helvetica, Arial, sans-serif">PublicTransport</text></g><g class="relationship" transform="translate(-3.6475378663704294 -174.06397418014467) rotate(414.38350027850475)"><path class="b-outline" fill="#A5ABB6" stroke="none" d="M 25 0.5 L 75.20277995843215 0.5 L 75.20277995843215 -0.5 L 25 -0.5 Z M 96.01944656152052 0.5 L 146.22222651995267 0.5 L 146.22222651995267 3.5 L 153.22222651995267 0 L 146.22222651995267 -3.5 L 146.22222651995267 -0.5 L 96.01944656152052 -0.5 Z"/><text text-anchor="middle" pointer-events="none" font-size="8px" fill="#000000" x="85.61111325997634" y="3" font-family="Helvetica Neue, Helvetica, Arial, sans-serif">trek</text></g><g class="relationship" transform="translate(-161.50998907313598 -86.50490600042058) rotate(469.9062055133886)"><path class="b-outline" fill="#A5ABB6" stroke="none" d="M 24.018736134675446,-6.953439040707552 L 24.277555179777966,-5.987513214418485 A 235.55482718943512 235.55482718943512 0 0 1 57.98115735369774,-12.430888304603855 L 57.8654200810049,-13.424168166329451 A 236.55482718943512 236.55482718943512 0 0 0 24.018736134675446,-6.953439040707552 Z M 107.87516643067161,-13.928765093422442 L 107.77949501243286,-12.933352123981024 A 235.55482718943512 235.55482718943512 0 0 1 141.60624903267913,-7.171356418982204 L 140.88842101255815,-4.25850164513418 L 148.52254817501134,-5.981900167674639 L 142.56335305950708,-11.055162784112904 L 141.8455250393861,-8.142308010264879 A 236.55482718943512 236.55482718943512 0 0 0 107.87516643067161,-13.928765093422442"/><text text-anchor="middle" pointer-events="none" font-size="8px" fill="#000000" x="82.86196532086446" y="-11.501834152535139" transform="rotate(180 82.86196532086446 -14.501834152535139)" font-family="Helvetica Neue, Helvetica, Arial, sans-serif">twowheeler</text></g><g class="relationship" transform="translate(-220.34392600410942 75.96706781838614) rotate(350.05806218228133)"><path class="b-outline" fill="#A5ABB6" stroke="none" d="M 21.40063509461097,12.933012701892217 L 21.90063509461097,12.06698729810778 A 87.13985355718764 87.13985355718764 0 0 0 38.86653390978745,19.581054107027754 L 38.561231262635786,20.53330947910092 A 88.13985355718764 88.13985355718764 0 0 1 21.40063509461097,12.933012701892217 Z M 88.15178905348797,21.773226809986454 L 87.89445679951994,20.806903825126966 A 87.13985355718764 87.13985355718764 0 0 0 105.2146713143293,14.15009589814679 L 103.8463843198472,11.48030364017405 L 111.67223441534603,11.402391620684043 L 107.03905397363874,17.70981890877711 L 105.67076697915665,15.04002665080437 A 88.13985355718764 88.13985355718764 0 0 1 88.15178905348797,21.773226809986454"/><text text-anchor="middle" pointer-events="none" font-size="8px" fill="#000000" x="63.27997907929793" y="27.21413259873229" font-family="Helvetica Neue, Helvetica, Arial, sans-serif">twowheeler</text></g><g class="relationship" transform="translate(-220.34392600410942 75.96706781838614) rotate(350.05806218228133)"><path class="b-outline" fill="#A5ABB6" stroke="none" d="M 25 0.5 L 51.768585012804365 0.5 L 51.768585012804365 -0.5 L 25 -0.5 Z M 75.15191821898112 0.5 L 101.92050323178549 0.5 L 101.92050323178549 3.5 L 108.92050323178549 0 L 101.92050323178549 -3.5 L 101.92050323178549 -0.5 L 75.15191821898112 -0.5 Z"/><text text-anchor="middle" pointer-events="none" font-size="8px" fill="#000000" x="63.460251615892744" y="3" font-family="Helvetica Neue, Helvetica, Arial, sans-serif">road</text></g><g class="relationship" transform="translate(-220.34392600410942 75.96706781838614) rotate(350.05806218228133)"><path class="b-outline" fill="#A5ABB6" stroke="none" d="M 21.40063509461097,-12.933012701892217 L 21.90063509461097,-12.06698729810778 A 87.13985355718764 87.13985355718764 0 0 1 52.98640356568407,-22.842601231189448 L 52.84313779465167,-23.832285483287308 A 88.13985355718764 88.13985355718764 0 0 0 21.40063509461097,-12.933012701892217 Z M 73.72286202491541,-24.354343171091543 L 73.62923468360883,-23.35873585846278 A 87.13985355718764 87.13985355718764 0 0 1 105.2146713143293,-14.15009589814679 L 103.8463843198472,-11.48030364017405 L 111.67223441534603,-11.402391620684043 L 107.03905397363874,-17.70981890877711 L 105.67076697915665,-15.04002665080437 A 88.13985355718764 88.13985355718764 0 0 0 73.72286202491541,-24.354343171091543"/><text text-anchor="middle" pointer-events="none" font-size="8px" fill="#000000" x="63.27997907929792" y="-21.21413259873229" font-family="Helvetica Neue, Helvetica, Arial, sans-serif">trek</text></g><g class="relationship" transform="translate(-161.50998907313598 -86.50490600042058) rotate(469.9062055133886)"><path class="b-outline" fill="#A5ABB6" stroke="none" d="M 24.018736134675446,6.953439040707552 L 24.277555179777966,5.987513214418485 A 235.55482718943512 235.55482718943512 0 0 0 72.48692672768554,13.66816973204189 L 72.43277074180845,14.666702219842705 A 236.55482718943512 236.55482718943512 0 0 1 24.018736134675446,6.953439040707552 Z M 93.2857098854235,14.877107786372733 L 93.25171320330655,13.87768584064358 A 235.55482718943512 235.55482718943512 0 0 0 141.60624903267913,7.171356418982204 L 140.88842101255815,4.25850164513418 L 148.52254817501134,5.981900167674639 L 142.56335305950708,11.055162784112904 L 141.8455250393861,8.142308010264879 A 236.55482718943512 236.55482718943512 0 0 1 93.2857098854235,14.877107786372733"/><text text-anchor="middle" pointer-events="none" font-size="8px" fill="#000000" x="82.86196532086443" y="17.50183415253514" transform="rotate(180 82.86196532086443 14.501834152535139)" font-family="Helvetica Neue, Helvetica, Arial, sans-serif">trek</text></g><g class="relationship" transform="translate(-220.34392600410942 75.96706781838614) rotate(389.4899063803837)"><path class="b-outline" fill="#A5ABB6" stroke="none" d="M 25 0.5 L 69.22855176197233 0.5 L 69.22855176197233 -0.5 L 25 -0.5 Z M 90.0452183650607 0.5 L 134.27377012703303 0.5 L 134.27377012703303 3.5 L 141.27377012703303 0 L 134.27377012703303 -3.5 L 134.27377012703303 -0.5 L 90.0452183650607 -0.5 Z"/><text text-anchor="middle" pointer-events="none" font-size="8px" fill="#000000" x="79.63688506351652" y="3" font-family="Helvetica Neue, Helvetica, Arial, sans-serif">trek</text></g><g class="relationship" transform="translate(-75.61218129596709 157.81869398423905) rotate(328.15545055527633)"><path class="b-outline" fill="#A5ABB6" stroke="none" d="M 25 0.5 L 69.20926142578469 0.5 L 69.20926142578469 -0.5 L 25 -0.5 Z M 90.02592802887307 0.5 L 134.23518945465776 0.5 L 134.23518945465776 3.5 L 141.23518945465776 0 L 134.23518945465776 -3.5 L 134.23518945465776 -0.5 L 90.02592802887307 -0.5 Z"/><text text-anchor="middle" pointer-events="none" font-size="8px" fill="#000000" x="79.61759472732888" y="3" font-family="Helvetica Neue, Helvetica, Arial, sans-serif">trek</text></g></g><g class="layer nodes"><g class="node" aria-label="graph-node1" transform="translate(-43.315723789617536,-47.30384947425278)"><circle class="b-outline" cx="0" cy="0" r="25" fill="#F16667" stroke="#eb2728" stroke-width="2px"/><text class="caption" text-anchor="middle" pointer-events="none" x="0" y="5" font-size="10px" fill="#FFFFFF" font-family="Helvetica Neue, Helvetica, Arial, sans-serif"> Darjeeli…</text></g><g class="node" aria-label="graph-node3" transform="translate(65.60173790887666,70.11027229148586)"><circle class="b-outline" cx="0" cy="0" r="25" fill="#8DCC93" stroke="#5db665" stroke-width="2px"/><text class="caption" text-anchor="middle" pointer-events="none" x="0" y="5" font-size="10px" fill="#2A2C34" font-family="Helvetica Neue, Helvetica, Arial, sans-serif"> Sandakp…</text></g><g class="node" aria-label="graph-node6" transform="translate(100.14144081768457,-29.181228729038256)"><circle class="b-outline" cx="0" cy="0" r="25" fill="#D9C8AE" stroke="#c0a378" stroke-width="2px"/><text class="caption" text-anchor="middle" pointer-events="none" x="0" y="5" font-size="10px" fill="#2A2C34" font-family="Helvetica Neue, Helvetica, Arial, sans-serif"> Tumbling</text></g><g class="node" aria-label="graph-node7" transform="translate(254.65774450369747,-29.2650243736237)"><circle class="b-outline" cx="0" cy="0" r="25" fill="#D9C8AE" stroke="#c0a378" stroke-width="2px"/><text class="caption" text-anchor="middle" pointer-events="none" x="0" y="5" font-size="10px" fill="#2A2C34" font-family="Helvetica Neue, Helvetica, Arial, sans-serif"> Gairibus</text></g><g class="node" aria-label="graph-node2" transform="translate(141.83083019946616,-119.2286587934793)"><circle class="b-outline" cx="0" cy="0" r="25" fill="#D9C8AE" stroke="#c0a378" stroke-width="2px"/><text class="caption" text-anchor="middle" pointer-events="none" x="0" y="5" font-size="10px" fill="#2A2C34" font-family="Helvetica Neue, Helvetica, Arial, sans-serif"> BhikeBh…</text></g><g class="node" aria-label="graph-node0" transform="translate(-3.6475378663704294,-174.06397418014467)"><circle class="b-outline" cx="0" cy="0" r="25" fill="#F16667" stroke="#eb2728" stroke-width="2px"/><text class="caption" text-anchor="middle" pointer-events="none" x="0" y="5" font-size="10px" fill="#FFFFFF" font-family="Helvetica Neue, Helvetica, Arial, sans-serif"> Rimbik</text></g><g class="node" aria-label="graph-node4" transform="translate(-161.50998907313598,-86.50490600042058)"><circle class="b-outline" cx="0" cy="0" r="25" fill="#D9C8AE" stroke="#c0a378" stroke-width="2px"/><text class="caption" text-anchor="middle" pointer-events="none" x="0" y="5" font-size="10px" fill="#2A2C34" font-family="Helvetica Neue, Helvetica, Arial, sans-serif"> Sirikhola</text></g><g class="node" aria-label="graph-node5" transform="translate(-88.43447774033315,52.8456784872754)"><circle class="b-outline" cx="0" cy="0" r="25" fill="#D9C8AE" stroke="#c0a378" stroke-width="2px"/><text class="caption" text-anchor="middle" pointer-events="none" x="0" y="5" font-size="10px" fill="#2A2C34" font-family="Helvetica Neue, Helvetica, Arial, sans-serif"> Gurdum</text></g><g class="node" aria-label="graph-node8" transform="translate(-220.34392600410942,75.96706781838614)"><circle class="b-outline" cx="0" cy="0" r="25" fill="#D9C8AE" stroke="#c0a378" stroke-width="2px"/><text class="caption" text-anchor="middle" pointer-events="none" x="0" y="5" font-size="10px" fill="#2A2C34" font-family="Helvetica Neue, Helvetica, Arial, sans-serif"> Rammam</text></g><g class="node" aria-label="graph-node9" transform="translate(-75.61218129596709,157.81869398423905)"><circle class="b-outline" cx="0" cy="0" r="25" fill="#8DCC93" stroke="#5db665" stroke-width="2px"/><text class="caption" text-anchor="middle" pointer-events="none" x="0" y="5" font-size="10px" fill="#2A2C34" font-family="Helvetica Neue, Helvetica, Arial, sans-serif"> Sabargr…</text></g></g></svg>