<svg xmlns="http://www.w3.org/2000/svg" width="734.4305419921875" height="146.44989013671875" viewBox="-624.5126342773438 -44.30072021484375 734.4305419921875 146.44989013671875"><title>Neo4j Graph Visualization</title><desc>Created using Neo4j (http://www.neo4j.com/)</desc><g class="layer relationships"><g class="relationship" transform="translate(-397.34121911338497 70.23357809321189) rotate(539.1570962797107)"><path class="b-outline" fill="#A5ABB6" stroke="none" d="M 25 0.5 L 78.31308209205456 0.5 L 78.31308209205456 -0.5 L 25 -0.5 Z M 112.87974964881725 0.5 L 166.1928317408718 0.5 L 166.1928317408718 3.5 L 173.1928317408718 0 L 166.1928317408718 -3.5 L 166.1928317408718 -0.5 L 112.87974964881725 -0.5 Z"/><text text-anchor="middle" pointer-events="none" font-size="8px" fill="#000000" x="95.5964158704359" y="3" transform="rotate(180 95.5964158704359 0)" font-family="Helvetica Neue, Helvetica, Arial, sans-serif">ORIGIN</text></g><g class="relationship" transform="translate(-397.34121911338497 70.23357809321189) rotate(349.9330145074806)"><path class="b-outline" fill="#A5ABB6" stroke="none" d="M 25 0.5 L 58.847327181368726 0.5 L 58.847327181368726 -0.5 L 25 -0.5 Z M 116.83066076901521 0.5 L 150.67798795038394 0.5 L 150.67798795038394 3.5 L 157.67798795038394 0 L 150.67798795038394 -3.5 L 150.67798795038394 -0.5 L 116.83066076901521 -0.5 Z"/><text text-anchor="middle" pointer-events="none" font-size="8px" fill="#000000" x="87.83899397519197" y="3" font-family="Helvetica Neue, Helvetica, Arial, sans-serif">DESTINATION</text></g><g class="relationship" transform="translate(-61.4137877481569 7.818751836489284) rotate(528.94784527616)"><path class="b-outline" fill="#A5ABB6" stroke="none" d="M 25 0.5 L 58.722219591608194 0.5 L 58.722219591608194 -0.5 L 25 -0.5 Z M 93.28888714837089 0.5 L 127.01110673997908 0.5 L 127.01110673997908 3.5 L 134.01110673997908 0 L 127.01110673997908 -3.5 L 127.01110673997908 -0.5 L 93.28888714837089 -0.5 Z"/><text text-anchor="middle" pointer-events="none" font-size="8px" fill="#000000" x="76.00555336998954" y="3" transform="rotate(180 76.00555336998954 0)" font-family="Helvetica Neue, Helvetica, Arial, sans-serif">ORIGIN</text></g><g class="relationship" transform="translate(-61.4137877481569 7.818751836489284) rotate(350.77381030541346)"><path class="b-outline" fill="#A5ABB6" stroke="none" d="M 25 0.5 L 39.60690817122904 0.5 L 39.60690817122904 -0.5 L 25 -0.5 Z M 97.59024175887552 0.5 L 112.19714993010456 0.5 L 112.19714993010456 3.5 L 119.19714993010456 0 L 112.19714993010456 -3.5 L 112.19714993010456 -0.5 L 97.59024175887552 -0.5 Z"/><text text-anchor="middle" pointer-events="none" font-size="8px" fill="#000000" x="68.59857496505228" y="3" font-family="Helvetica Neue, Helvetica, Arial, sans-serif">DESTINATION</text></g></g><g class="layer nodes"><g class="node" aria-label="graph-node31" transform="translate(-595.5126041387466,73.1491759041936)"><circle class="b-outline" cx="0" cy="0" r="25" fill="#FFC454" stroke="#d7a013" stroke-width="2px"/><text class="caption" text-anchor="middle" pointer-events="none" x="0" y="5" font-size="10px" fill="#2A2C34" font-family="Helvetica Neue, Helvetica, Arial, sans-serif"> MSN</text></g><g class="node" aria-label="graph-node78" transform="translate(80.91789530953743,-15.300721469126882)"><circle class="b-outline" cx="0" cy="0" r="25" fill="#FFC454" stroke="#d7a013" stroke-width="2px"/><text class="caption" text-anchor="middle" pointer-events="none" x="0" y="5" font-size="10px" fill="#2A2C34" font-family="Helvetica Neue, Helvetica, Arial, sans-serif"> GRR</text></g><g class="node" aria-label="graph-node273" transform="translate(-397.34121911338497,70.23357809321189)"><circle class="b-outline" cx="0" cy="0" r="25" fill="#ECB5C9" stroke="#da7298" stroke-width="2px"/><text class="caption" text-anchor="middle" pointer-events="none" x="0" y="5" font-size="10px" fill="#2A2C34" font-family="Helvetica Neue, Helvetica, Arial, sans-serif"> 11/30/20…</text></g><g class="node" aria-label="graph-node17" transform="translate(-217.47572960635378,38.301572738134745)"><circle class="b-outline" cx="0" cy="0" r="25" fill="#FFC454" stroke="#d7a013" stroke-width="2px"/><text class="caption" text-anchor="middle" pointer-events="none" x="0" y="5" font-size="10px" fill="#2A2C34" font-family="Helvetica Neue, Helvetica, Arial, sans-serif"> ORD</text></g><g class="node" aria-label="graph-node853" transform="translate(-61.4137877481569,7.818751836489284)"><circle class="b-outline" cx="0" cy="0" r="25" fill="#ECB5C9" stroke="#da7298" stroke-width="2px"/><text class="caption" text-anchor="middle" pointer-events="none" x="0" y="5" font-size="10px" fill="#2A2C34" font-family="Helvetica Neue, Helvetica, Arial, sans-serif"> 11/17/20…</text></g></g></svg>