<svg xmlns="http://www.w3.org/2000/svg" width="660.4681396484375" height="86.64186096191406" viewBox="-544.48681640625 -61.57188034057617 660.4681396484375 86.64186096191406"><title>Neo4j Graph Visualization</title><desc>Created using Neo4j (http://www.neo4j.com/)</desc><g class="layer relationships"><g class="relationship" transform="translate(-515.4868421919962 -21.150411054227064) rotate(361.55808155279334)"><path class="b-outline" fill="#A5ABB6" stroke="none" d="M 21.40063509461097,12.933012701892217 L 21.90063509461097,12.06698729810778 A 169.46532604961286 169.46532604961286 0 0 0 93.5871157396745,34.268113561764125 L 93.51013136367345,35.26514586106626 A 170.46532604961286 170.46532604961286 0 0 1 21.40063509461097,12.933012701892217 Z M 114.37237762269997,35.59526925796692 L 114.32697789430576,34.596300357218894 A 169.46532604961286 169.46532604961286 0 0 0 186.6800109318595,14.674449918151895 L 185.2629650733632,12.030214483301487 L 193.0860679229265,11.808715487468971 L 188.56940540985454,18.20009716461911 L 187.15235955135824,15.555861729768699 A 170.46532604961286 170.46532604961286 0 0 1 114.37237762269997,35.59526925796692"/><text text-anchor="middle" pointer-events="none" font-size="8px" fill="#000000" x="103.94410988138002" y="38.24976045333446" font-family="Helvetica Neue, Helvetica, Arial, sans-serif">trek</text></g><g class="relationship" transform="translate(-300.44501463857137 -15.301196299094997) rotate(360.759647907376)"><path class="b-outline" fill="#A5ABB6" stroke="none" d="M 25 0.5 L 89.51654574253769 0.5 L 89.51654574253769 -0.5 L 25 -0.5 Z M 110.33321234562607 0.5 L 174.84975808816375 0.5 L 174.84975808816375 3.5 L 181.84975808816375 0 L 174.84975808816375 -3.5 L 174.84975808816375 -0.5 L 110.33321234562607 -0.5 Z"/><text text-anchor="middle" pointer-events="none" font-size="8px" fill="#000000" x="99.92487904408188" y="3" font-family="Helvetica Neue, Helvetica, Arial, sans-serif">trek</text></g><g class="relationship" transform="translate(-93.61343672654847 -12.558788679016576) rotate(359.2493723178329)"><path class="b-outline" fill="#A5ABB6" stroke="none" d="M 25 0.5 L 76.39680231147148 0.5 L 76.39680231147148 -0.5 L 25 -0.5 Z M 97.21346891455985 0.5 L 148.61027122603133 0.5 L 148.61027122603133 3.5 L 155.61027122603133 0 L 148.61027122603133 -3.5 L 148.61027122603133 -0.5 L 97.21346891455985 -0.5 Z"/><text text-anchor="middle" pointer-events="none" font-size="8px" fill="#000000" x="86.80513561301566" y="3" font-family="Helvetica Neue, Helvetica, Arial, sans-serif">trek</text></g><g class="relationship" transform="translate(-515.4868421919962 -21.150411054227064) rotate(361.55808155279334)"><path class="b-outline" fill="#A5ABB6" stroke="none" d="M 25 0.5 L 92.36901500358486 0.5 L 92.36901500358486 -0.5 L 25 -0.5 Z M 115.75234820976162 0.5 L 183.12136321334648 0.5 L 183.12136321334648 3.5 L 190.12136321334648 0 L 183.12136321334648 -3.5 L 183.12136321334648 -0.5 L 115.75234820976162 -0.5 Z"/><text text-anchor="middle" pointer-events="none" font-size="8px" fill="#000000" x="104.06068160667324" y="3" font-family="Helvetica Neue, Helvetica, Arial, sans-serif">road</text></g><g class="relationship" transform="translate(-515.4868421919962 -21.150411054227064) rotate(361.55808155279334)"><path class="b-outline" fill="#A5ABB6" stroke="none" d="M 21.40063509461097,-12.933012701892217 L 21.90063509461097,-12.06698729810778 A 169.46532604961286 169.46532604961286 0 0 1 71.76511310367607,-31.145109319102346 L 71.55935900737478,-32.12371304475195 A 170.46532604961286 170.46532604961286 0 0 0 21.40063509461097,-12.933012701892217 Z M 136.41155482174096,-33.14993174205267 L 136.23686676410244,-32.16530791412728 A 169.46532604961286 169.46532604961286 0 0 1 186.6800109318595,-14.674449918151895 L 185.2629650733632,-12.030214483301487 L 193.0860679229265,-11.808715487468971 L 188.56940540985454,-18.20009716461911 L 187.15235955135824,-15.555861729768699 A 170.46532604961286 170.46532604961286 0 0 0 136.41155482174096,-33.14993174205267"/><text text-anchor="middle" pointer-events="none" font-size="8px" fill="#000000" x="103.94410988138006" y="-32.24976045333446" font-family="Helvetica Neue, Helvetica, Arial, sans-serif">PublicTransport</text></g></g><g class="layer nodes"><g class="node" aria-label="graph-node1" transform="translate(-515.4868421919962,-21.150411054227064)"><circle class="b-outline" cx="0" cy="0" r="25" fill="#F16667" stroke="#eb2728" stroke-width="2px"/><text class="caption" text-anchor="middle" pointer-events="none" x="0" y="5" font-size="10px" fill="#FFFFFF" font-family="Helvetica Neue, Helvetica, Arial, sans-serif"> Darjeeli…</text></g><g class="node" aria-label="graph-node3" transform="translate(86.98133526938157,-14.924882523021665)"><circle class="b-outline" cx="0" cy="0" r="25" fill="#8DCC93" stroke="#5db665" stroke-width="2px"/><text class="caption" text-anchor="middle" pointer-events="none" x="0" y="5" font-size="10px" fill="#2A2C34" font-family="Helvetica Neue, Helvetica, Arial, sans-serif"> Sandakp…</text></g><g class="node" aria-label="graph-node0" transform="translate(-300.44501463857137,-15.301196299094997)"><circle class="b-outline" cx="0" cy="0" r="25" fill="#F16667" stroke="#eb2728" stroke-width="2px"/><text class="caption" text-anchor="middle" pointer-events="none" x="0" y="5" font-size="10px" fill="#FFFFFF" font-family="Helvetica Neue, Helvetica, Arial, sans-serif"> Rimbik</text></g><g class="node" aria-label="graph-node2" transform="translate(-93.61343672654847,-12.558788679016576)"><circle class="b-outline" cx="0" cy="0" r="25" fill="#D9C8AE" stroke="#c0a378" stroke-width="2px"/><text class="caption" text-anchor="middle" pointer-events="none" x="0" y="5" font-size="10px" fill="#2A2C34" font-family="Helvetica Neue, Helvetica, Arial, sans-serif"> BhikeBh…</text></g></g></svg>