<svg xmlns="http://www.w3.org/2000/svg" width="1121.327392578125" height="140.0893096923828" viewBox="-762.8466796875 -126.98908996582031 1121.327392578125 140.0893096923828"><title>Neo4j Graph Visualization</title><desc>Created using Neo4j (http://www.neo4j.com/)</desc><g class="layer relationships"><g class="relationship" transform="translate(-733.8466726194808 -66.60000987139202) rotate(359.29256593784294)"><path class="b-outline" fill="#A5ABB6" stroke="none" d="M 21.40063509461097,12.933012701892217 L 21.90063509461097,12.06698729810778 A 282.08711845741345 282.08711845741345 0 0 0 149.59600885998194,49.54350422559503 L 149.54868948738408,50.542384036671876 A 283.08711845741345 283.08711845741345 0 0 1 21.40063509461097,12.933012701892217 Z M 170.39632335116013,50.76139127815338 L 170.36999884346633,49.76173782805449 A 282.08711845741345 282.08711845741345 0 0 0 298.8244963073311,14.97611028735914 L 297.3794076121038,12.347095516969597 L 305.1997122207779,12.042405793560462 L 300.7512812343008,18.4814633145452 L 299.3061925390735,15.852448544155655 A 283.08711845741345 283.08711845741345 0 0 1 170.39632335116013,50.76139127815338"/><text text-anchor="middle" pointer-events="none" font-size="8px" fill="#000000" x="159.97574183468708" y="53.34390352176365" font-family="Helvetica Neue, Helvetica, Arial, sans-serif">trek</text></g><g class="relationship" transform="translate(-406.7634374385525 -70.63872935212855) rotate(364.71996651827857)"><path class="b-outline" fill="#A5ABB6" stroke="none" d="M 25 0.5 L 187.9162061261715 0.5 L 187.9162061261715 -0.5 L 25 -0.5 Z M 208.73287272925987 0.5 L 371.64907885543136 0.5 L 371.64907885543136 3.5 L 378.64907885543136 0 L 371.64907885543136 -3.5 L 371.64907885543136 -0.5 L 208.73287272925987 -0.5 Z"/><text text-anchor="middle" pointer-events="none" font-size="8px" fill="#000000" x="198.32453942771568" y="3" font-family="Helvetica Neue, Helvetica, Arial, sans-serif">trek</text></g><g class="relationship" transform="translate(-4.483224540587327 -37.4241366012598) rotate(363.6876774648283)"><path class="b-outline" fill="#A5ABB6" stroke="none" d="M 25 0.5 L 153.42010633479606 0.5 L 153.42010633479606 -0.5 L 25 -0.5 Z M 174.23677293788444 0.5 L 302.6568792726805 0.5 L 302.6568792726805 3.5 L 309.6568792726805 0 L 302.6568792726805 -3.5 L 302.6568792726805 -0.5 L 174.23677293788444 -0.5 Z"/><text text-anchor="middle" pointer-events="none" font-size="8px" fill="#000000" x="163.82843963634025" y="3" font-family="Helvetica Neue, Helvetica, Arial, sans-serif">trek</text></g><g class="relationship" transform="translate(-733.8466726194808 -66.60000987139202) rotate(359.29256593784294)"><path class="b-outline" fill="#A5ABB6" stroke="none" d="M 25 0.5 L 148.362417717257 0.5 L 148.362417717257 -0.5 L 25 -0.5 Z M 171.74575092343375 0.5 L 295.10816864069074 0.5 L 295.10816864069074 3.5 L 302.10816864069074 0 L 295.10816864069074 -3.5 L 295.10816864069074 -0.5 L 171.74575092343375 -0.5 Z"/><text text-anchor="middle" pointer-events="none" font-size="8px" fill="#000000" x="160.05408432034537" y="3" font-family="Helvetica Neue, Helvetica, Arial, sans-serif">road</text></g><g class="relationship" transform="translate(-733.8466726194808 -66.60000987139202) rotate(359.29256593784294)"><path class="b-outline" fill="#A5ABB6" stroke="none" d="M 21.40063509461097,-12.933012701892217 L 21.90063509461097,-12.06698729810778 A 282.08711845741345 282.08711845741345 0 0 1 127.59832056779551,-47.63629286448264 L 127.47301929934763,-48.628411603407244 A 283.08711845741345 283.08711845741345 0 0 0 21.40063509461097,-12.933012701892217 Z M 192.5073302742382,-49.31160592374732 L 192.40289904433268,-48.31707381354653 A 282.08711845741345 282.08711845741345 0 0 1 298.8244963073311,-14.97611028735914 L 297.3794076121038,-12.347095516969597 L 305.1997122207779,-12.042405793560462 L 300.7512812343008,-18.4814633145452 L 299.3061925390735,-15.852448544155655 A 283.08711845741345 283.08711845741345 0 0 0 192.5073302742382,-49.31160592374732"/><text text-anchor="middle" pointer-events="none" font-size="8px" fill="#000000" x="159.97574183468706" y="-47.34390352176365" font-family="Helvetica Neue, Helvetica, Arial, sans-serif">PublicTransport</text></g></g><g class="layer nodes"><g class="node" aria-label="graph-node1" transform="translate(-733.8466726194808,-66.60000987139202)"><circle class="b-outline" cx="0" cy="0" r="25" fill="#F16667" stroke="#eb2728" stroke-width="2px"/><text class="caption" text-anchor="middle" pointer-events="none" x="0" y="5" font-size="10px" fill="#FFFFFF" font-family="Helvetica Neue, Helvetica, Arial, sans-serif"> Darjeeli…</text></g><g class="node" aria-label="graph-node3" transform="translate(329.4807389891806,-15.89978044324106)"><circle class="b-outline" cx="0" cy="0" r="25" fill="#8DCC93" stroke="#5db665" stroke-width="2px"/><text class="caption" text-anchor="middle" pointer-events="none" x="0" y="5" font-size="10px" fill="#2A2C34" font-family="Helvetica Neue, Helvetica, Arial, sans-serif"> Sandakp…</text></g><g class="node" aria-label="graph-node0" transform="translate(-406.7634374385525,-70.63872935212855)"><circle class="b-outline" cx="0" cy="0" r="25" fill="#F16667" stroke="#eb2728" stroke-width="2px"/><text class="caption" text-anchor="middle" pointer-events="none" x="0" y="5" font-size="10px" fill="#FFFFFF" font-family="Helvetica Neue, Helvetica, Arial, sans-serif"> Rimbik</text></g><g class="node" aria-label="graph-node2" transform="translate(-4.483224540587327,-37.4241366012598)"><circle class="b-outline" cx="0" cy="0" r="25" fill="#D9C8AE" stroke="#c0a378" stroke-width="2px"/><text class="caption" text-anchor="middle" pointer-events="none" x="0" y="5" font-size="10px" fill="#2A2C34" font-family="Helvetica Neue, Helvetica, Arial, sans-serif"> BhikeBh…</text></g></g></svg>